# xmcd
# 
# Track frame offsets:
#     150
#     16230
#     32249
#     47554
#     64452
#     86772
#     103543
#     124254
#     138548
#     155638
#     172628
#     190900
# 
# Disc length: 2796
# 
# Revision: 1
# Processed by: cddbd v1.5.2PL0 Copyright (c) Steve Scherf et al.
# Submitted via: fre:ac v1.0.17
# 
DISCID=a00aea0c
DTITLE=Rose Hill Drive - Moon is the new Earth
DYEAR=0
DGENRE=
TTITLE0=Sneak Out
TTITLE1=Altar Junkie
TTITLE2=Laughing in the Streets
TTITLE3=Trans Am
TTITLE4=A Better Way
TTITLE5=My Light
TTITLE6=The 8th Wonder
TTITLE7=One Night Stand
TTITLE8=Godfather
TTITLE9=Do You Wanna Get High?
TTITLE10=I'm On To You
TTITLE11=Always Waiting
EXTD=
EXTT0=
EXTT1=
EXTT2=
EXTT3=
EXTT4=
EXTT5=
EXTT6=
EXTT7=
EXTT8=
EXTT9=
EXTT10=
EXTT11=
PLAYORDER=
